<svg width="47" height="37" viewBox="0 0 47 37" fill="none" xmlns="http://www.w3.org/2000/svg">
<path d="M32.3125 11.2351C32.3125 10.4102 32.9701 9.74146 33.7812 9.74146H39.6562C40.4674 9.74146 41.125 10.4102 41.125 11.2351V14.2224C41.125 15.0473 40.4674 15.716 39.6562 15.716H33.7812C32.9701 15.716 32.3125 15.0473 32.3125 14.2224V11.2351Z" fill="#362EF9"/>
<path d="M5.875 0.779541C2.63033 0.779541 0 3.45445 0 6.75412V30.6524C0 33.9521 2.63033 36.627 5.875 36.627H41.125C44.3697 36.627 47 33.9521 47 30.6524V6.75412C47 3.45445 44.3697 0.779541 41.125 0.779541H5.875ZM44.0625 6.75412V21.6906H2.9375V6.75412C2.9375 5.10428 4.25266 3.76683 5.875 3.76683H41.125C42.7473 3.76683 44.0625 5.10428 44.0625 6.75412ZM41.125 33.6397H5.875C4.25266 33.6397 2.9375 32.3023 2.9375 30.6524V27.6651H44.0625V30.6524C44.0625 32.3023 42.7473 33.6397 41.125 33.6397Z" fill="#362EF9"/>
</svg>
