<svg width="107" height="21" viewBox="0 0 107 21" fill="none" xmlns="http://www.w3.org/2000/svg">
<g clip-path="url(#clip0_1_611)">
<path d="M89.2075 4.93138C88.7354 4.3037 88.1455 3.79422 87.4777 3.43741C86.6807 3.01657 85.8039 2.80819 84.919 2.82934C83.8579 2.81493 82.8122 3.10913 81.8893 3.6818C80.9803 4.25702 80.2368 5.09909 79.7431 6.11259C79.2036 7.23263 78.9321 8.48372 78.954 9.74934C78.9324 11.0237 79.2037 12.2837 79.7431 13.4137C80.2372 14.4379 80.9797 15.2935 81.8893 15.8867C82.8008 16.4703 83.8402 16.772 84.8964 16.7595C85.79 16.778 86.675 16.5651 87.4791 16.1384C88.1553 15.7806 88.7471 15.2574 89.2088 14.6095V16.5399H92.5579V3.04755H89.2075V4.93138ZM82.3497 9.74934C82.3337 9.01738 82.4997 8.2944 82.83 7.65748C83.1278 7.09404 83.5607 6.63026 84.0821 6.31625C84.5992 6.0104 85.1786 5.85228 85.7666 5.85657C86.3635 5.85396 86.9512 6.01661 87.4751 6.32934C88.004 6.64194 88.442 7.1107 88.7391 7.68221C89.0469 8.337 89.2075 9.06259 89.2075 9.79879C89.2075 10.535 89.0469 11.2606 88.7391 11.9154C88.4413 12.4863 88.0035 12.9548 87.4751 13.2682C86.9509 13.5799 86.3633 13.742 85.7666 13.7396C85.1689 13.7409 84.5818 13.568 84.0656 13.2387C83.5494 12.9093 83.1229 12.4355 82.83 11.8659C82.5011 11.2194 82.3353 10.4889 82.3497 9.74934Z" fill="#CFF8FE"/>
<path d="M35.106 0.00292969H31.7397V3.05779H30.1869V5.941H31.7397V12.4086C31.7397 13.8007 32.0909 14.8597 32.7855 15.5551C33.4801 16.2504 34.5326 16.6054 35.9177 16.6054H37.847V13.696H36.4592C35.9629 13.696 35.6077 13.5956 35.3948 13.4051C35.1819 13.2145 35.0834 12.8799 35.0834 12.4348V5.93955H37.8417V3.05779H32.9119L35.106 0.00292969Z" fill="#CFF8FE"/>
<path d="M55.738 11.514L52.7961 3.10881L52.7921 3.09717H49.1729L52.4728 11.5722L52.4768 11.5824H55.7101L53.8127 15.5145L51.3311 21.0001H54.7827L62.1674 3.12335L62.178 3.09717H58.7252L55.738 11.514Z" fill="#CFF8FE"/>
<path d="M103.548 3.09717L100.561 11.514L97.6194 3.10881L97.6154 3.09717H93.9949L97.2961 11.5722L97.3001 11.5824H100.533L98.636 15.5145L96.1664 20.9739L96.1545 21.0001H99.606L106.989 3.12335L107 3.09717H103.548Z" fill="#CFF8FE"/>
<path d="M74.4992 3.90888C73.5759 3.33724 72.5305 3.04358 71.4695 3.05788C70.5832 3.0404 69.7058 3.2533 68.9095 3.67904C68.2372 4.03271 67.6461 4.54671 67.1797 5.18319V3.05788H63.8625V11.2871L67.1305 14.8133H63.8625V21.0016H67.189V14.8802C67.6714 15.5065 68.2677 16.0163 68.9401 16.3771C69.7295 16.7964 70.5986 17.0053 71.4761 16.9866C72.5398 17.0013 73.587 16.6996 74.5059 16.1138C75.4154 15.5206 76.158 14.665 76.6521 13.6408C77.1902 12.509 77.4593 11.2474 77.4345 9.97206C77.4345 8.60028 77.1684 7.37542 76.6441 6.33531C76.1493 5.3243 75.4066 4.48405 74.4992 3.90888ZM74.0388 9.97206C74.0563 10.7155 73.8909 11.4505 73.5598 12.1003C73.2627 12.6711 72.8317 13.1451 72.3114 13.4733C71.791 13.8016 71.2001 13.9724 70.5993 13.9681C70.0137 13.9695 69.4375 13.8073 68.9254 13.4968C68.3982 13.1763 67.9614 12.7038 67.6627 12.1308C67.3474 11.483 67.1824 10.7604 67.1824 10.0266C67.1824 9.29278 67.3474 8.57019 67.6627 7.92239C67.9614 7.34939 68.3982 6.87694 68.9254 6.55643C69.4375 6.24593 70.0137 6.08369 70.5993 6.0851C71.1909 6.08186 71.774 6.23984 72.2958 6.54479C72.8217 6.85658 73.259 7.3206 73.5598 7.88602C73.8888 8.52138 74.0543 9.2422 74.0388 9.97206Z" fill="#CFF8FE"/>
<path d="M25.9117 3.71955C24.8563 3.17046 23.7016 2.88761 22.5328 2.89189C21.364 2.89617 20.211 3.18748 19.159 3.74428C18.1886 4.29326 17.3854 5.13946 16.8478 6.17944C16.2996 7.22973 16.0229 8.46622 16.0229 9.85691C16.0001 11.1342 16.289 12.395 16.8598 13.5097C17.4082 14.5524 18.218 15.4019 19.1936 15.9579C20.2397 16.5448 21.4017 16.8416 22.5773 16.822C24.1248 16.822 25.45 16.4001 26.5131 15.568C27.3542 14.9262 28.0219 14.0489 28.4465 13.0281L28.4571 13.0034H24.6942C24.1766 13.6391 23.4422 13.9621 22.5108 13.9621C21.7326 13.9854 20.9741 13.6926 20.3818 13.1402C19.85 12.6268 19.5083 11.9185 19.4212 11.1487V11.1269C19.3373 10.2853 19.3418 9.4361 19.4345 8.59569V8.57533H19.4212C19.5476 7.68796 19.8895 6.98389 20.4351 6.48202C21.0113 5.96765 21.7379 5.69755 22.4815 5.72121C23.2687 5.69732 24.0388 5.97521 24.6583 6.50675C24.9432 6.75392 25.173 7.06847 25.3307 7.42676C25.4883 7.78505 25.5696 8.17774 25.5684 8.57533H21.1509V10.8956H28.9202V10.8796C28.9858 10.4469 29.0174 10.0089 29.0146 9.57034C29.034 8.34805 28.7533 7.14244 28.2016 6.07907C27.6631 5.06698 26.8677 4.24737 25.9117 3.71955Z" fill="#CFF8FE"/>
<path d="M12.8758 7.95576V7.94558C13.1945 7.12708 13.3305 6.23746 13.2726 5.35016C13.2148 4.46286 12.9648 3.60333 12.5432 2.8425C12.0509 1.96968 11.3004 1.2787 10.3144 0.769555C9.32849 0.260411 8.111 0.00292969 6.70724 0.00292969H-0.00553894L1.77744 3.02725V3.03597H6.56753C7.57744 3.03597 8.34386 3.28327 8.84549 3.77205C9.34712 4.26083 9.60259 4.96199 9.60259 5.8479C9.60259 6.70035 9.3724 7.38697 8.92399 7.88448H5.68669L5.70798 7.92812L3.75867 10.7677V10.7561H0.0130891V16.2737H3.75867V10.7881H7.14234V10.7124L9.99777 16.2606V16.2694H14.3142L9.7902 7.95576H12.8758Z" fill="#CFF8FE"/>
<path d="M43.8759 6.5564V3.0564H40.6599V16.604H43.8759V6.80951H48.0672V3.0564H45.8891L43.8759 6.5564Z" fill="#CFF8FE"/>
</g>
<defs>
<clipPath id="clip0_1_611">
<rect width="107" height="21" fill="white"/>
</clipPath>
</defs>
</svg>
